<svg xmlns="http://www.w3.org/2000/svg" width="20.748" height="22.232" viewBox="0 0 20.748 22.232"><defs><style>.a{fill:#fff;stroke:#ff6418;stroke-width:0.2px;}</style></defs><g transform="translate(-12.971 -11.211)"><path class="a" d="M24.561,17.725a8.55,8.55,0,0,0-3.062-1.9c1.326-1.082,2.2-1.815,2.2-3.845C23.7,8.681,21.4,6,18.584,6s-5.113,2.681-5.113,5.977c0,2.032.872,2.765,2.2,3.845a8.634,8.634,0,0,0-5.709,8.114.788.788,0,0,0,.788.788H19.5a.788.788,0,0,0,0-1.576H11.583a7.044,7.044,0,0,1,11.885-4.288.787.787,0,0,0,1.092-1.134Zm-9.514-5.748c0-2.426,1.586-4.4,3.537-4.4s3.537,1.975,3.537,4.4-1.589,3.338-3.537,3.338S15.047,14.4,15.047,11.977Z" transform="translate(3.108 5.311)"/><g transform="translate(25.426 25.15)"><path class="a" d="M66.3,67.169a.788.788,0,0,1-.788.788H62.994v2.521a.788.788,0,1,1-1.576,0V67.956H58.9a.788.788,0,0,1,0-1.576h2.521V63.86a.788.788,0,1,1,1.576,0v2.521h2.521A.787.787,0,0,1,66.3,67.169Z" transform="translate(-58.11 -63.072)"/></g></g></svg>