<svg xmlns="http://www.w3.org/2000/svg" xmlns:xlink="http://www.w3.org/1999/xlink" width="51" height="51" viewBox="0 0 51 51"><defs><style>.a{fill:#ff6418;}.b{fill:#fff;}.c{filter:url(#a);}</style><filter id="a" x="0" y="0" width="51" height="51" filterUnits="userSpaceOnUse"><feOffset dy="3" input="SourceAlpha"/><feGaussianBlur stdDeviation="3" result="b"/><feFlood flood-opacity="0.161"/><feComposite operator="in" in2="b"/><feComposite in="SourceGraphic"/></filter></defs><g transform="translate(9 6)"><g class="c" transform="matrix(1, 0, 0, 1, -9, -6)"><circle class="a" cx="16.5" cy="16.5" r="16.5" transform="translate(9 6)"/></g><g transform="translate(9 -56.998)"><g transform="translate(0 67.997)"><path class="b" d="M15.765,68.232a.8.8,0,0,0-1.131,0L5.049,77.816,1.365,74.132A.8.8,0,0,0,.234,75.264l4.25,4.25a.8.8,0,0,0,1.131,0l10.15-10.15A.8.8,0,0,0,15.765,68.232Z" transform="translate(0 -67.998)"/></g></g></g></svg>