<svg xmlns="http://www.w3.org/2000/svg" width="38.487" height="36" viewBox="0 0 38.487 36"><defs><style>.a{fill:#3e3e3e;opacity:0;}.b,.c,.g{fill:none;}.b{stroke:#fd6517;stroke-width:1.2px;}.d,.e,.h{fill:#fd6517;}.d,.e{stroke:#fff;}.d{stroke-width:3.5px;}.e{stroke-width:1.3px;}.f,.h{stroke:none;}</style></defs><g transform="translate(0.19 0.279)"><rect class="a" width="36" height="36" transform="translate(-0.19 -0.279)"/><g transform="translate(0 0.736)"><g class="b"><ellipse class="f" cx="16.191" cy="16.119" rx="16.191" ry="16.119"/><ellipse class="g" cx="16.191" cy="16.119" rx="15.591" ry="15.519"/></g><g class="c" transform="translate(10.389 6.009)"><path class="f" d="M6.284,0A6.284,6.284,0,1,1,0,6.284,6.284,6.284,0,0,1,6.284,0Z"/><path class="h" d="M 6.28422212600708 1.20000171661377 C 3.480772018432617 1.20000171661377 1.20000171661377 3.480772018432617 1.20000171661377 6.28422212600708 C 1.20000171661377 9.087672233581543 3.480772018432617 11.36844253540039 6.28422212600708 11.36844253540039 C 9.087672233581543 11.36844253540039 11.36844253540039 9.087672233581543 11.36844253540039 6.28422212600708 C 11.36844253540039 3.480772018432617 9.087672233581543 1.20000171661377 6.28422212600708 1.20000171661377 M 6.28422212600708 1.9073486328125e-06 C 9.754901885986328 1.9073486328125e-06 12.56844234466553 2.813542366027832 12.56844234466553 6.28422212600708 C 12.56844234466553 9.754901885986328 9.754901885986328 12.56844234466553 6.28422212600708 12.56844234466553 C 2.813542366027832 12.56844234466553 1.9073486328125e-06 9.754901885986328 1.9073486328125e-06 6.28422212600708 C 1.9073486328125e-06 2.813542366027832 2.813542366027832 1.9073486328125e-06 6.28422212600708 1.9073486328125e-06 Z"/></g><g class="c" transform="translate(6.45 19.012)"><path class="f" d="M0,9.908a10.251,10.251,0,0,1,20.439-.731A15.541,15.541,0,0,1,9.8,13.37,15.532,15.532,0,0,1,0,9.908Z"/><path class="h" d="M 9.799459457397461 12.16966247558594 C 13.25425338745117 12.16966247558594 16.55596351623535 10.94477462768555 19.16389846801758 8.708136558532715 C 18.8236198425293 6.72578239440918 17.8281078338623 4.909632205963135 16.32151985168457 3.543562173843384 C 14.65479946136475 2.032292127609253 12.49679946899414 1.200002074241638 10.24504947662354 1.200002074241638 C 7.880209445953369 1.200002074241638 5.643029689788818 2.10626220703125 3.945619583129883 3.751852035522461 C 2.396121740341187 5.254045963287354 1.447890520095825 7.223535060882568 1.238507986068726 9.349654197692871 C 2.365531206130981 10.18484401702881 3.600884199142456 10.84711647033691 4.918609619140625 11.32183170318604 C 6.480249404907227 11.88441181182861 8.122409820556641 12.16966247558594 9.799459457397461 12.16966247558594 M 9.799459457397461 13.36966228485107 C 6.08665943145752 13.36966228485107 2.678589582443237 12.0732421875 -3.576660105863994e-07 9.908072471618652 C 0.1803896427154541 4.404702186584473 4.698849678039551 2.096099933623918e-06 10.24504947662354 2.096099933623918e-06 C 15.54257965087891 2.096099933623918e-06 19.90292930603027 4.019912242889404 20.43907928466797 9.176981925964355 C 17.65267944335938 11.77799224853516 13.9118595123291 13.36966228485107 9.799459457397461 13.36966228485107 Z"/></g></g><g transform="translate(20.848 21.763)"><path class="d" d="M12,2.553H1.266A1.144,1.144,0,0,1,0,1.44,1.427,1.427,0,0,1,1.266,0H12.151a1.427,1.427,0,0,1,1.266,1.44C13.416,2.139,12.849,2.553,12,2.553Z" transform="translate(13.416 6.413) rotate(180)"/><path class="d" d="M4.074,10.036.347,6.084a1.255,1.255,0,0,1,0-1.734L4.074.4A1.264,1.264,0,0,1,5.911,2.135l-2.9,3.081L5.911,8.3a1.276,1.276,0,0,1-.051,1.787A1.3,1.3,0,0,1,4.074,10.036Z" transform="translate(15.54 10.428) rotate(180)"/></g><g transform="translate(20.848 21.763)"><path class="e" d="M12,2.553H1.266A1.144,1.144,0,0,1,0,1.44,1.427,1.427,0,0,1,1.266,0H12.151a1.427,1.427,0,0,1,1.266,1.44C13.416,2.139,12.849,2.553,12,2.553Z" transform="translate(13.416 6.413) rotate(180)"/><path class="e" d="M4.074,10.036.347,6.084a1.255,1.255,0,0,1,0-1.734L4.074.4A1.264,1.264,0,0,1,5.911,2.135l-2.9,3.081L5.911,8.3a1.276,1.276,0,0,1-.051,1.787A1.3,1.3,0,0,1,4.074,10.036Z" transform="translate(15.54 10.428) rotate(180)"/></g></g></svg>