<svg xmlns="http://www.w3.org/2000/svg" width="17.062" height="16" viewBox="0 0 17.062 16"><defs><style>.a{fill:#f56b01;}</style></defs><g transform="translate(-5.424)"><path class="a" d="M15.557,17.181H14.442v-.8a.5.5,0,1,0-1,0v.8h-4.4v-.8a.5.5,0,1,0-1,0v.8h-4.4v-.8a.5.5,0,1,0-1,0v.8H1.505A1.507,1.507,0,0,0,0,18.686V30.371a1.507,1.507,0,0,0,1.505,1.505H15.557a1.507,1.507,0,0,0,1.505-1.505V18.686A1.507,1.507,0,0,0,15.557,17.181ZM1,18.686a.5.5,0,0,1,.5-.5H2.621v.6a.5.5,0,1,0,1,0v-.6h4.4v.6a.5.5,0,1,0,1,0v-.6h4.4v.6a.5.5,0,1,0,1,0v-.6h1.115a.5.5,0,0,1,.5.5v2.107H1ZM16.059,30.371a.5.5,0,0,1-.5.5H1.505a.5.5,0,0,1-.5-.5V21.8H16.059Z" transform="translate(5.424 -15.876)"/></g></svg>