<svg xmlns="http://www.w3.org/2000/svg" width="18.342" height="18.342" viewBox="0 0 18.342 18.342"><g transform="translate(0)"><path d="M13.078,18.341c-2.564,0-5.866-1.709-8.617-4.46A16.03,16.03,0,0,1,.345,7.433C-.292,5.292-.042,3.511,1.05,2.42L2.962.508a1.737,1.737,0,0,1,2.454,0L7.129,2.22a1.734,1.734,0,0,1,0,2.453l-.841.842c-.715.715-.17,2.855,1.757,4.781a7.558,7.558,0,0,0,2.914,1.893,3.236,3.236,0,0,0,.969.169,1.244,1.244,0,0,0,.9-.3l.841-.842a1.738,1.738,0,0,1,2.454,0l1.713,1.714a1.736,1.736,0,0,1,0,2.453l-1.912,1.912A3.91,3.91,0,0,1,13.078,18.341ZM4.189,1.047a.682.682,0,0,0-.485.2L1.791,3.161c-.861.861-.976,2.386-.323,4.3A15.466,15.466,0,0,0,5.2,13.139c2.52,2.52,5.62,4.148,7.9,4.149a2.829,2.829,0,0,0,2.082-.737l1.912-1.912a.688.688,0,0,0,0-.972l-1.713-1.713a.69.69,0,0,0-.973,0l-.841.841a2.248,2.248,0,0,1-1.634.606A7.147,7.147,0,0,1,7.3,11.037a8.386,8.386,0,0,1-2.2-3.5,2.731,2.731,0,0,1,.438-2.762l.842-.842a.688.688,0,0,0,0-.972L4.675,1.248A.683.683,0,0,0,4.189,1.047Z" transform="translate(0 0.001)"/><path d="M0,0V1.048A7.343,7.343,0,0,1,7.335,8.383H8.383A8.392,8.392,0,0,0,0,0Z" transform="translate(9.96)"/><path d="M4.715,5.763H5.763A5.77,5.77,0,0,0,0,0V1.048A4.721,4.721,0,0,1,4.715,5.763Z" transform="translate(9.96 2.62)"/><path d="M0,1.048a2.1,2.1,0,0,1,2.1,2.1H3.143A3.147,3.147,0,0,0,0,0Z" transform="translate(9.96 5.239)"/></g></svg>