<svg xmlns="http://www.w3.org/2000/svg" width="15.779" height="15.779" viewBox="0 0 15.779 15.779"><defs><style>.a{fill:#ff6418;}</style></defs><path class="a" d="M11.251,15.778c-2.206,0-5.047-1.47-7.413-3.837A13.79,13.79,0,0,1,.3,6.394C-.251,4.552-.036,3.021.9,2.082L2.548.437a1.494,1.494,0,0,1,2.111,0L6.133,1.91a1.492,1.492,0,0,1,0,2.111l-.724.724C4.794,5.36,5.263,7.2,6.92,8.858a6.5,6.5,0,0,0,2.506,1.628,2.784,2.784,0,0,0,.833.146,1.07,1.07,0,0,0,.774-.262l.724-.725a1.495,1.495,0,0,1,2.111,0l1.473,1.474a1.493,1.493,0,0,1,0,2.111L13.7,14.875A3.364,3.364,0,0,1,11.251,15.778ZM3.6.9a.587.587,0,0,0-.418.173L1.541,2.719C.8,3.46.7,4.772,1.263,6.415A13.3,13.3,0,0,0,4.475,11.3c2.168,2.168,4.834,3.569,6.794,3.569a2.434,2.434,0,0,0,1.791-.634l1.645-1.645a.592.592,0,0,0,0-.836l-1.473-1.473a.593.593,0,0,0-.837,0l-.724.724a1.934,1.934,0,0,1-1.406.522A6.148,6.148,0,0,1,6.283,9.5,7.214,7.214,0,0,1,4.394,6.484a2.35,2.35,0,0,1,.377-2.376L5.5,3.383a.592.592,0,0,0,0-.836L4.022,1.074A.588.588,0,0,0,3.6.9Z" transform="translate(0 0.001)"/><path class="a" d="M0,0V.9a6.317,6.317,0,0,1,6.31,6.31h.9A7.219,7.219,0,0,0,0,0Z" transform="translate(8.568)"/><path class="a" d="M4.056,4.958h.9A4.963,4.963,0,0,0,0,0V.9A4.061,4.061,0,0,1,4.056,4.958Z" transform="translate(8.568 2.254)"/><path class="a" d="M0,.9A1.8,1.8,0,0,1,1.8,2.7h.9A2.707,2.707,0,0,0,0,0Z" transform="translate(8.568 4.507)"/></svg>