<svg xmlns="http://www.w3.org/2000/svg" width="36.783" height="36.26" viewBox="0 0 36.783 36.26"><defs><style>.a{fill:#dedede;opacity:0;}.b{fill:#fd6517;stroke:#fff;stroke-width:0.7px;fill-rule:evenodd;}</style></defs><g transform="translate(0.472 0.333)"><rect class="a" width="36" height="36" transform="translate(-0.472 -0.333)"/><path class="b" d="M13.645,0c-.474,0-.609.394-.609.882V4.115a.937.937,0,0,0,.054.312l-1.755.331a.778.778,0,0,0-.591.863V11.17H6.393L5.121,5.842A2.6,2.6,0,0,0,2.579,4.1,2.636,2.636,0,0,0,0,6.779a2.731,2.731,0,0,0,1.182,2.26A.833.833,0,0,0,2.364,8.8a.905.905,0,0,0-.233-1.231.956.956,0,0,1-.412-.79.882.882,0,0,1,.86-.919,1.362,1.362,0,0,1,.877.367L8.541,27.741l.394,2.113a.864.864,0,0,0,.842.716h1.7a4.155,4.155,0,0,0,8.309,0h4.924a4.155,4.155,0,0,0,8.309,0h1.826c.474,0,1.11-.394,1.11-.882V23.81c0-.487-.636-.882-1.11-.882h-3.9l4.924-10.49a.928.928,0,0,0-.054-.863.858.858,0,0,0-.734-.4H31.247L28.489,4.777a.888.888,0,0,0-.483-.478.836.836,0,0,0-.663.037L22.15,6.779a.937.937,0,0,0,.054-.312V.882C22.2.394,21.568,0,21.094,0Zm1.11,1.764h5.73V3.178a.784.784,0,0,0-.376-.037l-5.354.992c0-.006,0-.012,0-.018ZM19.16,5.126l-1.486,5.456H12.463V6.357ZM27.272,6.3l2.1,4.869H23.69L22.4,8.6Zm-6.787.165a.869.869,0,0,0,.573.827l-.2.092a.865.865,0,0,0-.448.514.915.915,0,0,0,.036.7l1.307,2.572H19.3ZM6.966,12.934H33.718l-4.674,9.994H9.347ZM9.723,24.692H34.237v4.115h-1.5A4.115,4.115,0,0,0,25,28.825a.9.9,0,0,0-.179-.018H19.5a4.115,4.115,0,0,0-7.736.018.885.885,0,0,0-.125-.018H10.565l-.358-1.543Zm5.909,3.178a2.5,2.5,0,1,1-2.435,2.5A2.48,2.48,0,0,1,15.632,27.87Zm13.233,0a2.5,2.5,0,1,1-2.435,2.5A2.481,2.481,0,0,1,28.865,27.87Z" transform="translate(0 0.946)"/></g></svg>