<svg xmlns="http://www.w3.org/2000/svg" width="40" height="40.046" viewBox="0 0 40 40.046"><defs><style>.a,.d{fill:#fff;}.a{stroke:#707070;opacity:0;}.b,.c,.h{fill:none;}.c{stroke:#323232;stroke-linecap:round;}.e,.f,.i{fill:#323232;}.e,.f{stroke:#fff;}.e{stroke-width:0.3px;}.f{stroke-width:0.25px;}.g,.i{stroke:none;}</style></defs><g transform="translate(0.988 -6.924)"><g class="a" transform="translate(-0.988 6.924)"><rect class="g" width="40" height="40"/><rect class="h" x="0.5" y="0.5" width="39" height="39"/></g><g transform="translate(-1)"><g class="b" transform="translate(0.012 6.97)"><path class="g" d="M3.158,0H30.526a2.913,2.913,0,0,1,3.158,2.579V34.388a2.913,2.913,0,0,1-3.158,2.579H3.158A2.913,2.913,0,0,1,0,34.388V2.579A2.913,2.913,0,0,1,3.158,0Z"/><path class="i" d="M 3.157896041870117 0.9999961853027344 C 1.988195419311523 0.9999961853027344 0.9999961853027344 1.723125457763672 0.9999961853027344 2.579086303710938 L 0.9999961853027344 34.38778686523438 C 0.9999961853027344 35.24374771118164 1.988195419311523 35.96687698364258 3.157896041870117 35.96687698364258 L 30.52631568908691 35.96687698364258 C 31.69601631164551 35.96687698364258 32.6842155456543 35.24374771118164 32.6842155456543 34.38778686523438 L 32.6842155456543 2.579086303710938 C 32.6842155456543 1.723125457763672 31.69601631164551 0.9999961853027344 30.52631568908691 0.9999961853027344 L 3.157896041870117 0.9999961853027344 M 3.157896041870117 -3.814697265625e-06 L 30.52631568908691 -3.814697265625e-06 C 32.2703742980957 -3.814697265625e-06 33.6842155456543 1.154697418212891 33.6842155456543 2.579086303710938 L 33.6842155456543 34.38778686523438 C 33.6842155456543 35.81217575073242 32.2703742980957 36.96687698364258 30.52631568908691 36.96687698364258 L 3.157896041870117 36.96687698364258 C 1.413837432861328 36.96687698364258 -3.814697265625e-06 35.81217575073242 -3.814697265625e-06 34.38778686523438 L -3.814697265625e-06 2.579086303710938 C -3.814697265625e-06 1.154697418212891 1.413837432861328 -3.814697265625e-06 3.157896041870117 -3.814697265625e-06 Z"/></g><path class="c" d="M0,0H9.474" transform="translate(7.906 31.085)"/><line class="c" x2="9.474" transform="translate(7.906 37.254)"/><g transform="translate(18.983 26.43)"><g class="d" transform="translate(0 0)"><path class="g" d="M 10.51414108276367 20.03979682922363 C 4.992321014404297 20.03979682922363 0.500001072883606 15.65703678131104 0.500001072883606 10.26989650726318 C 0.500001072883606 4.88275671005249 4.992321014404297 0.4999965131282806 10.51414108276367 0.4999965131282806 C 16.03596115112305 0.4999965131282806 20.52828025817871 4.88275671005249 20.52828025817871 10.26989650726318 C 20.52828025817871 15.65703678131104 16.03596115112305 20.03979682922363 10.51414108276367 20.03979682922363 Z"/><path class="i" d="M 10.51414108276367 0.9999961853027344 C 5.268031120300293 0.9999961853027344 1.000001907348633 5.158456802368164 1.000001907348633 10.26989650726318 C 1.000001907348633 15.3813362121582 5.268031120300293 19.53979682922363 10.51414108276367 19.53979682922363 C 15.76025104522705 19.53979682922363 20.02828025817871 15.3813362121582 20.02828025817871 10.26989650726318 C 20.02828025817871 5.158456802368164 15.76025104522705 0.9999961853027344 10.51414108276367 0.9999961853027344 M 10.51414108276367 -3.814697265625e-06 C 16.32094192504883 -3.814697265625e-06 21.02828025817871 4.597986221313477 21.02828025817871 10.26989650726318 C 21.02828025817871 15.94180679321289 16.32094192504883 20.53979682922363 10.51414108276367 20.53979682922363 C 4.707340240478516 20.53979682922363 1.9073486328125e-06 15.94180679321289 1.9073486328125e-06 10.26989650726318 C 1.9073486328125e-06 4.597986221313477 4.707340240478516 -3.814697265625e-06 10.51414108276367 -3.814697265625e-06 Z"/></g><path class="e" d="M334.006-770.689l1.638,1.606-4.146,4.065-1.637-1.606Zm2.881-.387-.73-.716a.735.735,0,0,0-1.024,0l-.7.686,1.638,1.606.816-.8A.54.54,0,0,0,336.887-771.076ZM329-764.367a.185.185,0,0,0,.225.218l1.825-.434-1.637-1.606Z" transform="translate(-321.98 778.342)"/></g><path class="f" d="M39.1,974.985l-6.189,3.024v7.553l6.189,3.024,6.189-3.024v-7.553Zm0,1.193,5.1,2.491V984.9l-5.1,2.491L34,984.9v-6.234Zm0,1.565-1.957.956v2.038l1.957.956,1.957-.956V978.7Zm0,1.193.865.423v.719l-.865.423-.865-.423v-.719Zm-3.368,2.85v2.4l3.368,1.645,3.368-1.645v-2.4H41.375v1.739L39.1,984.636l-2.276-1.112v-1.739Z" transform="translate(-22.171 -962.25)"/></g></g></svg>