<svg xmlns="http://www.w3.org/2000/svg" width="35.5" height="35.5" viewBox="0 0 35.5 35.5"><defs><style>.a,.b{opacity:0.8;}</style></defs><g class="a" transform="translate(-10 -10)"><path class="b" d="M10.444,45.5H45.056a.444.444,0,0,0,.444-.444V10.444A.444.444,0,0,0,45.056,10H10.444a.444.444,0,0,0-.444.444V45.056A.444.444,0,0,0,10.444,45.5Zm.444-34.613H44.612V44.612H10.887Z"/><path d="M33.135,25.175a.444.444,0,0,0,.444-.444,6.793,6.793,0,1,1,13.587,0,.444.444,0,1,0,.888,0,7.681,7.681,0,1,0-15.362,0A.444.444,0,0,0,33.135,25.175Z" transform="translate(-12.622 -3.922)"/><path d="M46.941,53.938H27.194a.444.444,0,0,0,0,.888H46.941a.444.444,0,1,0,0-.888Z" transform="translate(-9.317 -24.441)"/><path d="M46.941,44.917H27.194a.444.444,0,1,0,0,.887H46.941a.444.444,0,1,0,0-.887Z" transform="translate(-9.317 -19.423)"/><path d="M43.486,27.869a2.891,2.891,0,1,0,2.891-2.891A2.894,2.894,0,0,0,43.486,27.869Zm4.894,0a2,2,0,1,1-2-2A2.005,2.005,0,0,1,48.38,27.869Z" transform="translate(-18.627 -8.332)"/><path d="M48.526,66.313l-2.556-.491-1.257-2.28a.444.444,0,0,0-.777,0l-1.257,2.28-2.556.491a.444.444,0,0,0-.24.739l1.779,1.9-.323,2.583a.444.444,0,0,0,.629.457l2.357-1.105,2.356,1.105a.444.444,0,0,0,.629-.457l-.323-2.583,1.779-1.9a.444.444,0,0,0-.24-.739ZM46.2,68.5a.444.444,0,0,0-.117.359l.249,1.991-1.816-.852a.445.445,0,0,0-.377,0l-1.816.852.249-1.991a.444.444,0,0,0-.117-.359L41.08,67.033l1.97-.379a.445.445,0,0,0,.305-.221l.969-1.757.969,1.757a.445.445,0,0,0,.305.221l1.97.379Z" transform="translate(-16.555 -29.655)"/></g></svg>