<svg xmlns="http://www.w3.org/2000/svg" width="17.971" height="18.25" viewBox="0 0 17.971 18.25"><defs><style>.a{stroke:#fff;stroke-width:0.25px;}</style></defs><path class="a" d="M1.256,18a.672.672,0,0,1-.619-.936l1.208-2.827A8.711,8.711,0,0,1,.608,12.067a8.864,8.864,0,1,1,8.253,5.619,8.646,8.646,0,0,1-2.913-.493l-4.576.8A.634.634,0,0,1,1.256,18Zm7.6-16.657a7.5,7.5,0,0,0-7,10.233,7.322,7.322,0,0,0,1.272,2.11.667.667,0,0,1,.111.7l-.882,2.063L5.9,15.839a.67.67,0,0,1,.357.034,7.247,7.247,0,0,0,2.607.471,7.5,7.5,0,1,0,0-15ZM12,12.359H5.72a.672.672,0,1,1,0-1.344H12a.672.672,0,1,1,0,1.344Zm0-2.687H5.72a.671.671,0,1,1,0-1.343H12a.671.671,0,1,1,0,1.343Zm0-2.686H5.72a.672.672,0,1,1,0-1.344H12a.672.672,0,1,1,0,1.344Z" transform="translate(0.125 0.125)"/></svg>