<svg xmlns="http://www.w3.org/2000/svg" width="15.971" height="16.25" viewBox="0 0 15.971 16.25"><defs><style>.a{fill:#ff6418;stroke:#fff;stroke-width:0.25px;}</style></defs><path class="a" d="M1.114,16a.6.6,0,0,1-.549-.832l1.072-2.513a7.747,7.747,0,0,1-1.1-1.93,7.862,7.862,0,1,1,7.322,4.995,7.656,7.656,0,0,1-2.584-.438l-4.06.708A.561.561,0,0,1,1.114,16ZM7.861,1.194a6.671,6.671,0,0,0-6.21,9.1,6.511,6.511,0,0,0,1.129,1.876.593.593,0,0,1,.1.626L2.1,14.626l3.136-.547a.594.594,0,0,1,.317.031,6.418,6.418,0,0,0,2.313.419,6.667,6.667,0,0,0,0-13.334Zm2.786,9.791H5.074a.6.6,0,0,1,0-1.194h5.573a.6.6,0,0,1,0,1.194Zm0-2.389H5.074a.6.6,0,1,1,0-1.193h5.573a.6.6,0,0,1,0,1.193Zm0-2.388H5.074a.6.6,0,0,1,0-1.194h5.573a.6.6,0,0,1,0,1.194Z" transform="translate(0.125 0.125)"/></svg>