<svg xmlns="http://www.w3.org/2000/svg" viewBox="0 0 18 18"><defs><style>.cls-1{}</style></defs><title>delete</title><g id="Layer_2" data-name="Layer 2"><g id="Layer_1-2" data-name="Layer 1"><path id="Path_2163" data-name="Path 2163" class="cls-1" d="M9,18a9,9,0,1,1,9-9A9,9,0,0,1,9,18ZM9,1.1A7.9,7.9,0,1,0,16.9,9h0A7.92,7.92,0,0,0,9,1.1Z"/><path class="cls-1" d="M9.67,9.3l2.82-2.92,0,0a.55.55,0,0,0,0-.77.54.54,0,0,0-.78,0L8.9,8.51,6.11,5.62l0,0a.55.55,0,0,0-.78,0,.54.54,0,0,0,0,.77L8.14,9.3,5.32,12.22a.54.54,0,0,0,.4.93A.52.52,0,0,0,6.11,13L8.9,10.09,11.7,13a.54.54,0,0,0,.4.17h0a.54.54,0,0,0,.39-.15.55.55,0,0,0,0-.78Z"/></g></g></svg>