<svg xmlns="http://www.w3.org/2000/svg" width="36" height="36" viewBox="0 0 36 36"><defs><style>.a{fill:#3e3e3e;opacity:0;}.b{fill:none;}.b,.c{stroke:#ff6418;stroke-miterlimit:10;stroke-width:1.3px;}.c{fill:#fff;}.d{fill:#fd6517;stroke:#fff;stroke-width:1.2px;}</style></defs><g transform="translate(0.19 0.05)"><rect class="a" width="36" height="36" transform="translate(-0.19 -0.05)"/><g transform="translate(0.788 1.892)"><path class="b" d="M154.406,535.507q1.525,0,3.051.021a1.045,1.045,0,0,1,1.179.977,3,3,0,0,1,.024.409c0,6.444,0,11.587,0,18.031,0,.236,0,.474-.021.71-.025.361-.2.521-.6.551-.128.009-.257.009-.385.009h-7.29c-.087,0-.175-.009-.27-.013-.029-.4-9.894.021-10.171.016-.859-.016-1.719-.006-2.578-.008-.458,0-.688-.2-.731-.62a1.787,1.787,0,0,1-.005-.191c0-6.125.088-13.735.088-19.859l15.775-.034Z" transform="translate(-136.612 -527.107)"/><path class="b" d="M164.068,549.8q0-3.135,0-6.27c0-.127,0-.256,0-.384.017-.583.141-.716.658-.715q1.993,0,3.985,0c.967,0,1.933-.014,2.9-.02a2.068,2.068,0,0,1,.272.01c.4.051.576.226.648.679q.367,2.3.729,4.6c.013.083.03.166.042.25a.608.608,0,0,0,.41.549c.647.23,1.291.471,1.935.709.475.175.6.364.6.934q0,3.071,0,6.143c0,.026,0,.051,0,.076-.013.727-.135.863-.777.864-.883,0-10.468,0-10.807,0-.428-.005-.591-.179-.593-.664,0-1.425,0-2.85,0-4.274Z" transform="translate(-142.071 -529.777)"/><path class="c" d="M146.607,557.611a4.189,4.189,0,0,1,4.235,4.2,4.262,4.262,0,0,1-4.22,4.242,4.317,4.317,0,0,1-4.239-4.1A4.229,4.229,0,0,1,146.607,557.611Z" transform="translate(-138.01 -533.643)"/><path class="c" d="M146.607,557.611a4.189,4.189,0,0,1,4.235,4.2,4.262,4.262,0,0,1-4.22,4.242,4.317,4.317,0,0,1-4.239-4.1A4.229,4.229,0,0,1,146.607,557.611Z" transform="translate(-118.095 -533.643)"/><g transform="translate(2.761)"><path class="c" d="M144.087,537.8a7.453,7.453,0,1,1,7.394-7.458A7.512,7.512,0,0,1,144.087,537.8Z" transform="translate(-136.612 -522.89)"/><path class="d" d="M54.767,36.829a.6.6,0,0,0,.844.032l5.471-5.069a.6.6,0,0,0,.032-.844l-.794-.858a.6.6,0,0,0-.844-.032L55.3,33.917,53.7,32.2a.6.6,0,0,0-.844-.032L52,32.965a.6.6,0,0,0-.032.844Z" transform="translate(-48.862 -26.114)"/></g></g></g></svg>