<svg xmlns="http://www.w3.org/2000/svg" width="30" height="30" viewBox="0 0 30 30"><defs><style>.a{fill:#fff;}</style></defs><path class="a" d="M16,31A15,15,0,1,1,31,16,15.017,15.017,0,0,1,16,31ZM16,3A13,13,0,1,0,29,16,13.014,13.014,0,0,0,16,3Z" transform="translate(-1 -1)"/><g transform="translate(7.277 5.445)"><path class="a" d="M13.645,24.27H10.088a1.08,1.08,0,0,1-1.08-1.08V19.633a1.08,1.08,0,0,1,.316-.763L20.885,7.309a1.079,1.079,0,0,1,1.527,0l3.557,3.557a1.079,1.079,0,0,1,0,1.527L14.408,23.954A1.08,1.08,0,0,1,13.645,24.27Zm-2.477-2.16H13.2L23.679,11.629,21.649,9.6,11.168,20.08Z" transform="translate(-9.008 -6.992)"/></g><g transform="translate(17.782 6.882)"><rect class="a" width="2.515" height="5.031" transform="translate(0 1.779) rotate(-45)"/></g></svg>