<svg xmlns="http://www.w3.org/2000/svg" width="25.77" height="25.2" viewBox="0 0 25.77 25.2"><defs><style>.a{fill:none;stroke:#000;stroke-linecap:round;stroke-linejoin:round;stroke-width:1.5px;}</style></defs><g transform="translate(-687 -379.04)"><g transform="translate(-1)"><ellipse class="a" cx="5.66" cy="5.68" rx="5.66" ry="5.68" transform="translate(688.75 379.79)"/><path class="a" d="M697.88,400.85h5.7a.8.8,0,0,0,.8-.8V386.28a.8.8,0,0,0-.8-.8h-3.42"/><path class="a" d="M688.75,386.27v13.77a.8.8,0,0,0,.8.8h2.32"/><path class="a" d="M704.38,389.35h5.13a.78.78,0,0,1,.76.62l.65,3.17a.778.778,0,0,0,.38.52l1.33.45a.773.773,0,0,1,.39.67v4.26a.77.77,0,0,1-.77.77"/><path class="a" d="M694.41,382.13v3.94h2.87"/><circle class="a" cx="2.97" cy="2.97" r="2.97" transform="translate(691.91 397.55)"/><line class="a" x1="1.58" transform="translate(704.42 399.76)"/><circle class="a" cx="2.97" cy="2.97" r="2.97" transform="translate(706.03 397.55)"/></g></g></svg>