<svg xmlns="http://www.w3.org/2000/svg" width="24.774" height="24.856" viewBox="0 0 24.774 24.856"><defs><style>.a{stroke:none;stroke-width:0.75px;}</style></defs><path class="a" d="M25.539,17.47a.628.628,0,0,0-.91,0L13.349,27.994a.956.956,0,0,0-.228.93.718.718,0,0,0,.683.558h2.438a.076.076,0,0,1,.065.074V40.563a.779.779,0,0,0,.715.818h5.071a.779.779,0,0,0,.715-.818V33.275a.076.076,0,0,1,.065-.074h4.421a.075.075,0,0,1,.065.074v7.251a.779.779,0,0,0,.715.818h5.071a.779.779,0,0,0,.715-.818V29.519a.076.076,0,0,1,.065-.074h2.438a.747.747,0,0,0,.683-.558.956.956,0,0,0-.228-.93ZM36.364,28.7H33.926a.779.779,0,0,0-.715.818V40.526a.075.075,0,0,1-.065.074H28.075a.075.075,0,0,1-.065-.074V33.275a.779.779,0,0,0-.715-.818H22.874a.779.779,0,0,0-.715.818v7.251a.075.075,0,0,1-.065.074H17.023a.075.075,0,0,1-.065-.074V29.519a.779.779,0,0,0-.715-.818H13.8a.1.1,0,0,1-.065-.037c0-.037,0-.074.033-.074L25.052,18.1a.057.057,0,0,1,.1,0l11.28,10.487a.136.136,0,0,1,.033.074A.229.229,0,0,1,36.364,28.7Z" transform="translate(-12.697 -16.9)"/></svg>