<svg xmlns="http://www.w3.org/2000/svg" width="36" height="36.197" viewBox="0 0 36 36.197"><defs><style>.a{fill:#3e3e3e;opacity:0;}.b,.d{fill:#fd6517;stroke:#fff;}.b{stroke-width:0.75px;}.c{fill:#fff;stroke:#ff6418;stroke-miterlimit:10;stroke-width:1.3px;}.d{stroke-width:1.2px;}</style></defs><g transform="translate(0.19 0.499)"><rect class="a" width="36" height="36" transform="translate(-0.19 -0.499)"/><path class="b" d="M29.973,10.6l-7.1-6.917A4.529,4.529,0,0,0,19.7,2.4H6.63A6.153,6.153,0,0,0,.4,8.474V31.148a6.153,6.153,0,0,0,6.23,6.074H25.062a6.153,6.153,0,0,0,6.23-6.074V13.7a4.3,4.3,0,0,0-1.319-3.1Zm-.758,20.547A4.1,4.1,0,0,1,25.062,35.2H6.63a4.1,4.1,0,0,1-4.153-4.049V8.474A4.1,4.1,0,0,1,6.63,4.425H19.7a2.455,2.455,0,0,1,1.713.692l7.095,6.917a2.351,2.351,0,0,1,.709,1.67ZM9.115,17.934v2.809H7.709a1.013,1.013,0,1,0,0,2.025H9.115v.906c0,.559,1.411,1.012,1.985,1.012s.092-.453.092-1.012v-.911a3.421,3.421,0,1,0,0-6.841V13.1h1.483a1.013,1.013,0,1,0,0-2.025H11.192v-.906a1.039,1.039,0,0,0-2.077,0v.906a3.424,3.424,0,1,0,0,6.848Zm2.077.013a1.394,1.394,0,1,1,0,2.787ZM9.115,13.1v2.8a1.4,1.4,0,1,1,0-2.794Zm7.407,6.835a1.026,1.026,0,0,1,1.038-1.012H23.4a1.013,1.013,0,1,1,0,2.025h-5.84a1.026,1.026,0,0,1-1.038-1.006Zm0-6.045a1.026,1.026,0,0,1,1.038-1.012H23.4a1.013,1.013,0,1,1,0,2.025h-5.84A1.026,1.026,0,0,1,16.523,13.9ZM24.448,28.5a1.026,1.026,0,0,1-1.038,1.012H6.39a1.013,1.013,0,1,1,0-2.025H23.412a1.052,1.052,0,0,1,.736.3,1,1,0,0,1,.3.721Z" transform="translate(0.015 -2.211)"/><g transform="translate(19.635 19.871)"><path class="c" d="M144.223,538.068a7.589,7.589,0,1,1,7.529-7.594A7.649,7.649,0,0,1,144.223,538.068Z" transform="translate(-136.612 -522.89)"/><path class="d" d="M54.82,36.955a.611.611,0,0,0,.859.032l5.571-5.162a.611.611,0,0,0,.032-.859l-.809-.873a.611.611,0,0,0-.859-.032l-4.251,3.93-1.627-1.747a.611.611,0,0,0-.859-.032L52,33.021a.611.611,0,0,0-.032.859Z" transform="translate(-48.809 -26.046)"/></g></g></svg>