<svg xmlns="http://www.w3.org/2000/svg" width="15.554" height="16.25" viewBox="0 0 15.554 16.25"><defs><style>.a{fill:#ff6418;stroke:#ff6418;stroke-width:0.25px;}</style></defs><g transform="translate(-0.207 16.125) rotate(-90)"><path class="a" d="M159.007,220.043h-7.153a.522.522,0,1,1,0-1.043h7.153a.522.522,0,1,1,0,1.043Zm0,0" transform="translate(-143.528 -211.538)"/><path class="a" d="M7.652,15.636A7.652,7.652,0,1,1,14.774,5.185a.522.522,0,1,1-.971.382,6.608,6.608,0,1,0,0,4.835.522.522,0,1,1,.971.382,7.613,7.613,0,0,1-7.122,4.852Zm0,0" transform="translate(0 0)"/></g></svg>