<svg xmlns="http://www.w3.org/2000/svg" width="108" height="108" viewBox="0 0 108 108"><defs><style>.a{fill:#fff;fill-rule:evenodd;}.b{opacity:0.1;}</style></defs><g transform="translate(-136 -41)"><path class="a" d="M190-617a54,54,0,0,0,54-54,54,54,0,0,0-54-54,54,54,0,0,0-54,54A54,54,0,0,0,190-617Z" transform="translate(0 766)"/><g class="b" transform="translate(138 43)"><path d="M52,0a52,52,0,1,0,52,52A52.153,52.153,0,0,0,52,0Zm0,15.6A15.322,15.322,0,0,1,67.6,31.2,15.322,15.322,0,0,1,52,46.8,15.322,15.322,0,0,1,36.4,31.2,15.322,15.322,0,0,1,52,15.6Zm0,73.84A37.936,37.936,0,0,1,20.8,72.8c0-10.4,20.8-16.12,31.2-16.12S83.2,62.4,83.2,72.8A37.937,37.937,0,0,1,52,89.44Z"/></g></g></svg>