<svg xmlns="http://www.w3.org/2000/svg" width="25.562" height="25.185" viewBox="0 0 25.562 25.185"><defs><style>.a,.b,.c{fill:none;stroke:#000;stroke-linecap:round;stroke-linejoin:round;}.a{stroke-width:1.5px;}.b{stroke-width:1.2px;}.c{stroke-width:1.3px;}</style></defs><g transform="translate(-734.06 -379.007)"><path class="a" d="M748.25,391.49a7.015,7.015,0,0,0-1.58-.17c-.1,0-.2,0-.3.01a4.409,4.409,0,0,1-1.18.61,4.314,4.314,0,0,1-2.75,0,4.41,4.41,0,0,1-1.18-.61c-.11,0-.21-.01-.3-.01h0a6.945,6.945,0,0,0-4.29,1.45,4.682,4.682,0,0,0-1.86,3.34v2.06h9.41"/><path class="a" d="M746.69,380.95a4.925,4.925,0,0,0-6.42,0,4.277,4.277,0,0,0-1.18,3.13,6.574,6.574,0,0,0,1.36,4,3.584,3.584,0,0,0,6.06,0,6.574,6.574,0,0,0,1.36-4A4.277,4.277,0,0,0,746.69,380.95Z"/><circle class="b" cx="1.94" cy="1.94" r="1.94" transform="translate(750.85 395.61)"/><path class="c" d="M755.14,403.12l-1.56.39a.472.472,0,0,1-.57-.34l-.17-.68a4.744,4.744,0,0,1-1.35-.2l-.36.61a.471.471,0,0,1-.64.16l-1.38-.83a.471.471,0,0,1-.16-.64l.36-.61a5.166,5.166,0,0,1-.82-1.1l-.69.17a.472.472,0,0,1-.57-.34l-.39-1.56a.472.472,0,0,1,.34-.57l.68-.17a5.127,5.127,0,0,1,.2-1.35l-.6-.36a.471.471,0,0,1-.16-.64l.83-1.38a.471.471,0,0,1,.64-.16l.6.36a5.167,5.167,0,0,1,1.1-.82l-.17-.68a.472.472,0,0,1,.34-.57l1.56-.39a.472.472,0,0,1,.57.34l.17.68a4.813,4.813,0,0,1,1.36.2l.36-.6a.471.471,0,0,1,.64-.16l1.38.83a.471.471,0,0,1,.16.64l-.36.6a4.986,4.986,0,0,1,.82,1.11l.68-.17a.472.472,0,0,1,.57.34l.39,1.56a.472.472,0,0,1-.34.57l-.68.17a5.2,5.2,0,0,1-.2,1.36l.6.36a.471.471,0,0,1,.16.64l-.83,1.38a.471.471,0,0,1-.64.16l-.6-.36a4.807,4.807,0,0,1-1.1.81l.17.68a.463.463,0,0,1-.34.56Z"/></g></svg>