<svg xmlns="http://www.w3.org/2000/svg" width="40.15" height="40" viewBox="0 0 40.15 40"><defs><style>.a{fill:#fff;stroke:#707070;opacity:0;}.b{fill:#323232;stroke-width:0.3px;}.b,.c{stroke:#fff;}.c{fill:#565656;stroke-width:0.4px;}.d{stroke:none;}.e{fill:none;}</style></defs><g transform="translate(-29.137 50.326)"><g class="a" transform="translate(29.287 -50.326)"><rect class="d" width="40" height="40"/><rect class="e" x="0.5" y="0.5" width="39" height="39"/></g><g transform="translate(19.914 -58.709)"><path class="b" d="M46.485,37.925a3.739,3.739,0,0,1,1.095-2.113.84.84,0,0,0,.193-.781l-.816-2.017a.845.845,0,0,0-.684-.426,3.735,3.735,0,0,1-2.256-.757,3.729,3.729,0,0,1-.724-2.268.846.846,0,0,0-.415-.691l-2-.846a.67.67,0,0,0-.214-.032.846.846,0,0,0-.57.214,3.744,3.744,0,0,1-2.117,1.058h-.013a3.726,3.726,0,0,1-2.113-1.093.847.847,0,0,0-.579-.223.657.657,0,0,0-.2.03l-1.172.473a16.739,16.739,0,0,0-3.619-1.361,9.664,9.664,0,1,0-8.163-.005A16.835,16.835,0,0,0,9.373,43.413a.709.709,0,0,0,.709.709h21.88a4.135,4.135,0,0,1,.53,2.029.847.847,0,0,0,.415.691l2,.845a.673.673,0,0,0,.214.032.848.848,0,0,0,.57-.213,3.762,3.762,0,0,1,2.121-1.059h.01a3.742,3.742,0,0,1,2.113,1.095.846.846,0,0,0,.579.223.672.672,0,0,0,.2-.03l2.017-.817a.848.848,0,0,0,.426-.684,3.745,3.745,0,0,1,.758-2.256,3.689,3.689,0,0,1,2.259-.719H46.2a.846.846,0,0,0,.684-.414l.847-2a.843.843,0,0,0-.181-.785A3.746,3.746,0,0,1,46.485,37.925ZM20.371,24.169a8.246,8.246,0,1,1,5.83,2.414A8.217,8.217,0,0,1,20.371,24.169Zm-5.065,8.347a15.4,15.4,0,0,1,17.33-3.1.516.516,0,0,0-.011.064,3.734,3.734,0,0,1-.757,2.257,3.7,3.7,0,0,1-2.261.722H29.6a.847.847,0,0,0-.685.415l-.847,2a.841.841,0,0,0,.181.784,3.739,3.739,0,0,1,1.061,2.129A3.756,3.756,0,0,1,28.211,39.9a.845.845,0,0,0-.193.782l.816,2.017,0,0H10.81A15.358,15.358,0,0,1,15.305,32.516Zm30.932,8.205-.48,1.136a4.6,4.6,0,0,0-2.833,1.112,4.637,4.637,0,0,0-1.155,2.811l-1.145.464a4.645,4.645,0,0,0-2.808-1.216,4.651,4.651,0,0,0-2.785,1.17l-1.137-.48a4.611,4.611,0,0,0-1.111-2.828,4.613,4.613,0,0,0-2.813-1.16l-.463-1.144A4.649,4.649,0,0,0,30.723,37.8,4.628,4.628,0,0,0,29.552,35l.481-1.136a4.6,4.6,0,0,0,2.83-1.113,4.62,4.62,0,0,0,1.157-2.814l1.144-.462a4.612,4.612,0,0,0,2.785,1.213h.026a4.634,4.634,0,0,0,2.782-1.169l1.135.48a4.617,4.617,0,0,0,1.113,2.83,4.616,4.616,0,0,0,2.813,1.158l.463,1.143a4.629,4.629,0,0,0-1.216,2.789A4.645,4.645,0,0,0,46.237,40.722Z"/><path class="c" d="M65.238,61.894h-.026l.013,1.419a2.6,2.6,0,1,1-.014,0V61.894a4.011,4.011,0,0,0-.035,8.021h.031a4.011,4.011,0,0,0,.032-8.022Z" transform="translate(-27.313 -28.048)"/></g></g></svg>