<svg xmlns="http://www.w3.org/2000/svg" viewBox="0 0 19.46 19.47"><defs><style>.cls-1{fill:none;stroke:#000;stroke-linecap:round;stroke-linejoin:round;stroke-width:1.5px;}</style></defs><title>manage</title><g id="Layer_2" data-name="Layer 2"><g id="Layer_1-2" data-name="Layer 1"><path class="cls-1" d="M15.93,5.72l1.26-1.26L15,2.26,13.73,3.53a7.28,7.28,0,0,0-2.45-1V.75H8.18V2.53a7.28,7.28,0,0,0-2.45,1L4.46,2.26,2.27,4.46,3.53,5.72a7.28,7.28,0,0,0-1,2.45H.75v3.11H2.53a7.28,7.28,0,0,0,1,2.45L2.27,15l2.19,2.2,1.27-1.26a7.28,7.28,0,0,0,2.45,1v1.79h3.1V16.93a7.28,7.28,0,0,0,2.45-1L15,17.19,17.19,15l-1.26-1.26a7.28,7.28,0,0,0,1-2.45h1.78V8.17H16.93A7.28,7.28,0,0,0,15.93,5.72Zm-4.1,6.09a3,3,0,1,1,.88-2.12A3,3,0,0,1,11.83,11.81Z"/></g></g></svg>