<svg xmlns="http://www.w3.org/2000/svg" width="19.46" height="19.47" viewBox="0 0 19.46 19.47"><defs><style>.a{fill:none;stroke:#000;stroke-linecap:round;stroke-linejoin:round;stroke-width:1.5px;}</style></defs><path class="a" d="M271.96,747.43v-3.11h-1.78a7.359,7.359,0,0,0-1-2.45l1.26-1.26-2.19-2.2-1.27,1.27a7.192,7.192,0,0,0-2.45-1V736.9h-3.1v1.78a7.191,7.191,0,0,0-2.45,1l-1.27-1.27-2.19,2.2,1.26,1.26a7.36,7.36,0,0,0-1,2.45H254v3.11h1.78a7.288,7.288,0,0,0,1,2.45l-1.26,1.26,2.19,2.2,1.27-1.26a7.391,7.391,0,0,0,2.45,1v1.79h3.1v-1.79a7.391,7.391,0,0,0,2.45-1l1.27,1.26,2.19-2.2-1.26-1.26a7.288,7.288,0,0,0,1-2.45Zm-9,1.41a3,3,0,1,1,2.121-.879,3,3,0,0,1-2.121.879Z" transform="translate(-253.25 -736.15)"/></svg>