<svg xmlns="http://www.w3.org/2000/svg" width="28.378" height="27.609" viewBox="0 0 28.378 27.609"><defs><style>.a,.c{fill:#3e3e3e;}.a,.b,.c{stroke:#000;}.a{stroke-width:1.2px;}.b{fill:#fff;}.c{stroke-width:0.7px;}.d{stroke:none;}.e{fill:none;}</style></defs><g transform="translate(0.6 0.6)"><path class="a" d="M13.485,3.253q.214-.01.4-.01a8.139,8.139,0,0,1,1.762.192L15.8,4a7.614,7.614,0,0,0-1.913-.242q-.166,0-.316.006a4.7,4.7,0,0,1-1.251.645,4.538,4.538,0,0,1-2.9,0,4.7,4.7,0,0,1-1.251-.645Q8,3.757,7.852,3.757h0A7.24,7.24,0,0,0,3.326,5.293,4.926,4.926,0,0,0,1.367,8.821q0,.085,0,.2v1.97H11.839l.138.515H1.105a.258.258,0,0,1-.258-.258V9.021q0-.1.006-.224A5.435,5.435,0,0,1,3,4.893a7.757,7.757,0,0,1,4.848-1.65h0q.212,0,.416.01l-.012.257.013-.257a.256.256,0,0,1,.149.057,4.189,4.189,0,0,0,1.163.612,4.055,4.055,0,0,0,2.573,0,4.191,4.191,0,0,0,1.17-.617h0a.256.256,0,0,1,.161-.051Z" transform="translate(-0.848 8.615)"/><path class="a" d="M6.769.849A4.953,4.953,0,0,1,10.3,2.17a4.692,4.692,0,0,1,1.316,3.46A7.046,7.046,0,0,1,10.168,9.9a4.39,4.39,0,0,1-3.4,1.843A4.39,4.39,0,0,1,3.371,9.9,7.046,7.046,0,0,1,1.918,5.63,4.692,4.692,0,0,1,3.234,2.17,4.953,4.953,0,0,1,6.769.849ZM9.944,2.536A4.447,4.447,0,0,0,6.769,1.364,4.447,4.447,0,0,0,3.595,2.536,4.193,4.193,0,0,0,2.433,5.63,6.52,6.52,0,0,0,3.775,9.583a3.888,3.888,0,0,0,2.994,1.646A3.888,3.888,0,0,0,9.763,9.583,6.52,6.52,0,0,0,11.105,5.63,4.193,4.193,0,0,0,9.944,2.536Z" transform="translate(2.906 -0.849)"/><g class="b" transform="translate(16.131 16.933) rotate(-14)"><circle class="d" cx="2.785" cy="2.785" r="2.785"/><circle class="e" cx="2.785" cy="2.785" r="2.285"/></g><path class="c" d="M7.227,12.76H5.533a.5.5,0,0,1-.5-.5v-.744A5.265,5.265,0,0,1,3.7,10.964l-.527.527a.5.5,0,0,1-.7,0l-1.2-1.2a.5.5,0,0,1,0-.7L1.8,9.06a5.265,5.265,0,0,1-.554-1.335H.5a.5.5,0,0,1-.5-.5V5.532a.5.5,0,0,1,.5-.5h.742A5.265,5.265,0,0,1,1.794,3.7l-.524-.524a.5.5,0,0,1,0-.7l1.2-1.2a.5.5,0,0,1,.7,0l.522.523a5.265,5.265,0,0,1,1.339-.556V.5a.5.5,0,0,1,.5-.5H7.227a.5.5,0,0,1,.5.5v.736a5.267,5.267,0,0,1,1.341.555l.52-.52a.5.5,0,0,1,.7,0l1.2,1.2a.5.5,0,0,1,0,.7l-.52.52a5.267,5.267,0,0,1,.555,1.341h.736a.5.5,0,0,1,.5.5V7.227a.5.5,0,0,1-.5.5h-.738a5.268,5.268,0,0,1-.556,1.339l.522.523a.5.5,0,0,1,0,.7l-1.2,1.2a.5.5,0,0,1-.7,0l-.524-.524a5.268,5.268,0,0,1-1.337.553v.742a.5.5,0,0,1-.5.5Zm-1.89-1.682a.249.249,0,0,1,.2.243v.94H7.227v-.939a.249.249,0,0,1,.2-.243,4.775,4.775,0,0,0,1.544-.638.249.249,0,0,1,.31.034l.663.663,1.2-1.2-.661-.661a.249.249,0,0,1-.034-.311,4.775,4.775,0,0,0,.642-1.545.249.249,0,0,1,.243-.2h.934V5.532h-.933a.249.249,0,0,1-.243-.2,4.772,4.772,0,0,0-.641-1.547.249.249,0,0,1,.034-.31l.659-.659-1.2-1.2-.659.659a.249.249,0,0,1-.31.034,4.774,4.774,0,0,0-1.547-.641.249.249,0,0,1-.2-.243V.5H5.533v.934a.249.249,0,0,1-.2.243,4.774,4.774,0,0,0-1.545.641.249.249,0,0,1-.31-.034L2.82,1.622l-1.2,1.2.663.663a.249.249,0,0,1,.034.31,4.776,4.776,0,0,0-.638,1.544.249.249,0,0,1-.243.2H.5V7.227h.94a.249.249,0,0,1,.243.2,4.773,4.773,0,0,0,.639,1.541.249.249,0,0,1-.034.31l-.665.665,1.2,1.2.665-.665C3.534,10.424,4.789,10.956,5.337,11.078Z" transform="translate(11.886 14.204) rotate(-14)"/></g></svg>