<svg xmlns="http://www.w3.org/2000/svg" width="16.875" height="24" viewBox="0 0 16.875 24"><defs><style>.a{fill:#fff;}</style></defs><path class="a" d="M84.438,0a8.439,8.439,0,0,0-7.178,12.874l6.7,10.793a.7.7,0,0,0,.6.332h.006a.7.7,0,0,0,.6-.342l6.527-10.9A8.439,8.439,0,0,0,84.438,0Zm6.041,12.038-5.934,9.908-6.089-9.813a7.036,7.036,0,1,1,12.023-.1Z" transform="translate(-76)"/><g transform="translate(4.57 4.409)"><path class="a" d="M169.867,90a3.867,3.867,0,1,0,3.867,3.867A3.872,3.872,0,0,0,169.867,90Zm0,6.454a2.587,2.587,0,1,1,2.582-2.587A2.589,2.589,0,0,1,169.867,96.454Z" transform="translate(-166 -90)"/></g></svg>