<svg xmlns="http://www.w3.org/2000/svg" viewBox="0 0 25.91 24.75"><title>nav_home</title><g id="Layer_2" data-name="Layer 2"><g id="Layer_1-2" data-name="Layer 1"><path d="M21.24,24.75h-5.6a.75.75,0,0,1-.75-.75V16.71H11V24a.76.76,0,0,1-.75.75H4.44A.76.76,0,0,1,3.69,24V13.13H.75a.75.75,0,0,1-.7-.47.76.76,0,0,1,.18-.82L12.46.21a.75.75,0,0,1,1,0L25.68,11.84a.76.76,0,0,1,.18.82.75.75,0,0,1-.7.47H22V24A.76.76,0,0,1,21.24,24.75Zm-4.85-1.5h4.1V12.38a.76.76,0,0,1,.75-.75h2.05L13,1.79,2.63,11.63H4.44a.75.75,0,0,1,.75.75V23.25H9.46V16a.75.75,0,0,1,.75-.75h5.43a.76.76,0,0,1,.75.75Z"/></g></g></svg>