<svg xmlns="http://www.w3.org/2000/svg" viewBox="0 0 25.77 25.19"><title>nav_execute</title><g id="Layer_2" data-name="Layer 2"><g id="Layer_1-2" data-name="Layer 1"><path d="M25,14.4l-.12-.05-1.22-.42L23,10.77a1.54,1.54,0,0,0-1.49-1.21H17.13V7.23a1.56,1.56,0,0,0-1.55-1.56H12.77A6.41,6.41,0,0,0,0,6.42c0,.22,0,.44,0,.65a.76.76,0,0,0,0,.16V21a1.55,1.55,0,0,0,1.55,1.55H3.34a3.69,3.69,0,0,0,7.07,0h5.17a1.55,1.55,0,0,0,1.47-1.09h.23a3.72,3.72,0,0,0,7.44,0v0A1.53,1.53,0,0,0,25.77,20V15.73A1.53,1.53,0,0,0,25,14.4ZM6.41,1.5A4.93,4.93,0,1,1,1.5,6.42,4.92,4.92,0,0,1,6.41,1.5Zm.46,22.19a2.22,2.22,0,1,1,2.22-2.22A2.22,2.22,0,0,1,6.87,23.69Zm3.68-2.64A3.7,3.7,0,0,0,3.2,21L1.5,21V10.55A6.4,6.4,0,0,0,12.77,7.18l2.86.05-.05,13.82ZM21,23.69a2.22,2.22,0,1,1,2.22-2.22A2.23,2.23,0,0,1,21,23.69Zm0-5.94A3.71,3.71,0,0,0,17.61,20h-.48v-8.9h4.4l.65,3.17a1.53,1.53,0,0,0,.75,1l.12.06,1.22.41,0,4A3.73,3.73,0,0,0,21,17.75Z"/><path d="M6.41,7.77H9.28a.75.75,0,0,0,0-1.5H7.16V3.08a.75.75,0,0,0-1.5,0V7A.76.76,0,0,0,6.41,7.77Z"/></g></g></svg>