<svg xmlns="http://www.w3.org/2000/svg" viewBox="0 0 25.66 25.26"><title>nav_manage</title><g id="Layer_2" data-name="Layer 2"><g id="Layer_1-2" data-name="Layer 1"><path d="M3.07,14.35a6.27,6.27,0,0,1,3.82-1.3H7a4.86,4.86,0,0,0,1.19.58,5.07,5.07,0,0,0,3.22,0,4.86,4.86,0,0,0,1.19-.58,7.53,7.53,0,0,1,1.48.16.75.75,0,0,0,.33-1.46,7.87,7.87,0,0,0-2.08-.19.84.84,0,0,0-.41.14,3.59,3.59,0,0,1-3.25.51,3.72,3.72,0,0,1-1-.51.84.84,0,0,0-.41-.14H6.9a7.63,7.63,0,0,0-4.74,1.61A5.42,5.42,0,0,0,0,17.1v2.06a.76.76,0,0,0,.75.75h9.41a.75.75,0,0,0,0-1.5H1.5V17.16A3.9,3.9,0,0,1,3.07,14.35Z"/><path d="M9.46,11.48a4.64,4.64,0,0,0,3.59-2,7.35,7.35,0,0,0,1.51-4.41,5,5,0,0,0-1.38-3.69l0,0A5.12,5.12,0,0,0,9.45,0,5.15,5.15,0,0,0,5.67,1.42,5,5,0,0,0,4.29,5.07,7.38,7.38,0,0,0,5.78,9.5,4.68,4.68,0,0,0,9.46,11.48Zm-2.74-9a3.76,3.76,0,0,1,2.58-1h.15a3.82,3.82,0,0,1,2.66,1,3.52,3.52,0,0,1,1,2.59,5.93,5.93,0,0,1-1.22,3.57A3.17,3.17,0,0,1,9.46,10,3.24,3.24,0,0,1,7,8.61,5.85,5.85,0,0,1,5.79,5,3.44,3.44,0,0,1,6.72,2.49Z"/><path d="M20.12,16.24a2.67,2.67,0,0,0-3.69.92,2.67,2.67,0,0,0,.92,3.69,2.62,2.62,0,0,0,1.38.39,3,3,0,0,0,.66-.08,2.71,2.71,0,0,0,2-3.27A2.67,2.67,0,0,0,20.12,16.24Zm-.36,2.92a1.23,1.23,0,0,1-.74.54,1.19,1.19,0,1,1-.57-2.31.92.92,0,0,1,.29,0,1.22,1.22,0,0,1,.61.17,1.21,1.21,0,0,1,.41,1.64Z"/><path d="M24.66,19.58l-.13-.08.06-.4.15,0a1.24,1.24,0,0,0,.89-1.49L25.24,16a1.24,1.24,0,0,0-.56-.76,1.25,1.25,0,0,0-.93-.13l-.14,0-.24-.33.08-.13A1.24,1.24,0,0,0,23,13l-1.39-.83a1.22,1.22,0,0,0-1.66.42l-.08.13a2.76,2.76,0,0,0-.4-.06l0-.14a1.22,1.22,0,0,0-1.48-.9L16.42,12a1.22,1.22,0,0,0-.89,1.49l0,.15a2.43,2.43,0,0,0-.32.24l-.14-.08a1.22,1.22,0,0,0-1.66.42l-.84,1.38A1.24,1.24,0,0,0,13,17.31l.13.08a2.63,2.63,0,0,0-.06.39l-.15,0a1.21,1.21,0,0,0-.89,1.48l.38,1.56a1.23,1.23,0,0,0,1.49.89l.15,0,.24.33-.08.14a1.23,1.23,0,0,0,.42,1.67l1.38.83a1.23,1.23,0,0,0,1.67-.42l.08-.14a2.57,2.57,0,0,0,.4.06l0,.15a1.23,1.23,0,0,0,1.19.93,1,1,0,0,0,.3,0l1.55-.38h0a1.22,1.22,0,0,0,.89-1.49l0-.15a2.43,2.43,0,0,0,.32-.24l.14.09a1.22,1.22,0,0,0,1.67-.42l.83-1.39A1.23,1.23,0,0,0,24.66,19.58Zm-1-1.81a.74.74,0,0,0-.56.72A4.45,4.45,0,0,1,23,19.64a.76.76,0,0,0,.33.86l.36.22-.53.89-.37-.21a.76.76,0,0,0-.91.1,4.2,4.2,0,0,1-.93.7.74.74,0,0,0-.37.83l.1.42-1,.25-.1-.41a.76.76,0,0,0-.72-.57,4.44,4.44,0,0,1-1.15-.17.76.76,0,0,0-.21,0,.73.73,0,0,0-.64.36l-.22.36-.9-.54.22-.36a.74.74,0,0,0-.11-.91,4.55,4.55,0,0,1-.69-.94.75.75,0,0,0-.84-.37l-.42.11-.25-1,.41-.1a.76.76,0,0,0,.57-.72,4.44,4.44,0,0,1,.17-1.15.76.76,0,0,0-.33-.86L14,16.17l.54-.9.35.22a.76.76,0,0,0,.92-.11,4,4,0,0,1,.94-.69.75.75,0,0,0,.36-.84l-.1-.42,1-.25.1.4a.75.75,0,0,0,.72.57,4.53,4.53,0,0,1,1.16.18A.75.75,0,0,0,20.9,14l.22-.35.89.53-.21.36a.74.74,0,0,0,.11.91,4.55,4.55,0,0,1,.69.94.75.75,0,0,0,.84.37l.41-.1.25,1Z"/></g></g></svg>