<svg xmlns="http://www.w3.org/2000/svg" width="36.292" height="36" viewBox="0 0 36.292 36"><defs><style>.a{fill:#3e3e3e;opacity:0;}.b{fill:#ff6418;stroke:#fd6517;stroke-width:0.2px;}</style></defs><g transform="translate(0.472 0.217)"><rect class="a" width="36" height="36" transform="translate(-0.472 -0.217)"/><path class="b" d="M17.505,0A17.493,17.493,0,1,0,33.663,10.761a.692.692,0,1,0-1.277.534,16.1,16.1,0,1,1-9.574-9.017A.692.692,0,1,0,23.267.971,17.46,17.46,0,0,0,17.505,0ZM32.8,2.092a.692.692,0,0,0-.494.2l-5.19,4.957L24.368,4.5a.692.692,0,0,0-.979.979L26.61,8.7a.692.692,0,0,0,.968.011L33.257,3.29a.692.692,0,0,0-.462-1.2ZM17.505,7.417a.692.692,0,0,0-.692.692V9.48a4.345,4.345,0,0,0,.692,8.634,2.96,2.96,0,0,1,.034,5.92l-.034,0-.034,0a2.963,2.963,0,0,1-2.926-2.96.692.692,0,1,0-1.385,0,4.351,4.351,0,0,0,3.653,4.289V26.9a.692.692,0,1,0,1.385,0V25.364a4.345,4.345,0,0,0-.692-8.634,2.96,2.96,0,1,1,0-5.921h0a2.964,2.964,0,0,1,2.96,2.96.692.692,0,1,0,1.385,0A4.351,4.351,0,0,0,18.2,9.48V8.11a.692.692,0,0,0-.692-.692Z" transform="translate(0.71 0)"/></g></svg>