<svg xmlns="http://www.w3.org/2000/svg" width="26.154" height="25.75" viewBox="0 0 26.154 25.75"><defs><style>.a,.b,.c{fill:#272727;}.a,.b{stroke:#272727;}.a{stroke-width:0.75px;}.b{stroke-width:0.5px;}.c{font-size:14px;font-family:Arial-BoldMT, Arial;font-weight:700;}.d{fill:#fff;}.e,.f{stroke:none;}</style></defs><g transform="translate(-141.857 47.375)"><path class="a" d="M21.335,3.661a12.5,12.5,0,0,0-17.675,0c-2.361,2.361-1.7,2.74.518.518A11.767,11.767,0,0,1,20.818,20.821,11.687,11.687,0,0,1,12.5,24.267c-3.608,0-3.832.732,0,.732A12.5,12.5,0,0,0,21.335,3.661Zm0,0" transform="translate(142.64 -47)"/><path class="b" d="M146.651,130.5l1.436-1.081a.788.788,0,0,0,.308-.727,8.252,8.252,0,0,1-.065-1.158,1.691,1.691,0,0,0-1.427-1.679l-1.251-.176a2.575,2.575,0,0,0-3.026,2.79,13.983,13.983,0,0,0,9.306,12.36,2.946,2.946,0,0,0,.978.173,2.511,2.511,0,0,0,1.315-.364,2.644,2.644,0,0,0,1.224-1.946l.173-1.225a1.728,1.728,0,0,0-1.215-1.862,8.229,8.229,0,0,1-1.082-.378.812.812,0,0,0-.807.1l-1.425,1.073a.365.365,0,0,1-.424.012,10.588,10.588,0,0,1-2.17-1.953.418.418,0,0,0-.64.539,11.42,11.42,0,0,0,2.341,2.107,1.2,1.2,0,0,0,1.4-.037l1.413-1.064a9.122,9.122,0,0,0,1.178.41.891.891,0,0,1,.607.938l-.173,1.225a1.741,1.741,0,0,1-2.411,1.464,13.147,13.147,0,0,1-8.748-11.619,1.741,1.741,0,0,1,2.073-1.913l1.251.176a.864.864,0,0,1,.707.839,9.111,9.111,0,0,0,.068,1.245l-1.413,1.064a1.2,1.2,0,0,0-.422,1.331,11.466,11.466,0,0,0,.963,2.165.419.419,0,0,0,.726-.417,10.577,10.577,0,0,1-.892-2.006.365.365,0,0,1,.129-.4Zm0,0" transform="translate(0 -163.016)"/><text class="c" transform="translate(152.357 -31.5)"><tspan x="0" y="0">$</tspan></text><g class="d" transform="matrix(-0.799, -0.602, 0.602, -0.799, 145.052, -38.197)"><path class="e" d="M 3.065740346908569 2.500004291534424 L 0.9342543482780457 2.500004291534424 L 2.000000715255737 0.9013914465904236 L 3.065740346908569 2.500004291534424 Z"/><path class="f" d="M 1.999999761581421 0.1605517864227295 C 2.063414812088013 0.1605517864227295 2.126829624176025 0.190239429473877 2.166409730911255 0.2496142387390137 L 3.792709827423096 2.689064264297485 C 3.881309747695923 2.821974277496338 3.78603982925415 3.000004291534424 3.626299858093262 3.000004291534424 L 0.3736996650695801 3.000004291534424 C 0.2139596939086914 3.000004291534424 0.1186897754669189 2.821974277496338 0.2072896957397461 2.689064264297485 L 1.833589792251587 0.2496142387390137 C 1.873169660568237 0.190239429473877 1.936584711074829 0.1605517864227295 1.999999761581421 0.1605517864227295 Z"/></g></g></svg>