<svg xmlns="http://www.w3.org/2000/svg" width="18" height="18" viewBox="0 0 18 18"><defs><style>.a{fill:#4a4a4a;}</style></defs><path class="a" d="M9,6.232A2.769,2.769,0,1,0,11.769,9,2.772,2.772,0,0,0,9,6.232Zm0,4.131A1.362,1.362,0,1,1,10.363,9,1.364,1.364,0,0,1,9,10.363ZM17.3,8.3H15.891A6.939,6.939,0,0,0,9.7,2.11V.7A.7.7,0,1,0,8.3.7V2.11A6.939,6.939,0,0,0,2.11,8.3H.7A.7.7,0,1,0,.7,9.7H2.11A6.939,6.939,0,0,0,8.3,15.891V17.3a.7.7,0,0,0,1.406,0V15.891A6.939,6.939,0,0,0,15.891,9.7H17.3a.7.7,0,0,0,0-1.406ZM9,14.52A5.52,5.52,0,1,1,14.52,9,5.526,5.526,0,0,1,9,14.52Zm0,0" transform="translate(0 0)"/></svg>