<svg xmlns="http://www.w3.org/2000/svg" width="41.56" height="42.061" viewBox="0 0 41.56 42.061"><defs><style>.a,.c,.d{fill:#fff;}.a{stroke:#707070;opacity:0;}.b,.g{fill:none;}.b,.c,.e{stroke:#323232;}.b,.c{stroke-miterlimit:10;}.e{fill:#323232;stroke-width:0.1px;}.f{stroke:none;}</style></defs><g transform="translate(179.56 -893.439)"><g class="a" transform="translate(-178 895.5)"><rect class="f" width="40" height="40"/><rect class="g" x="0.5" y="0.5" width="39" height="39"/></g><g transform="translate(-313.611 372.527)"><path class="b" d="M156.256,535.507q1.683.005,3.368.024a1.171,1.171,0,0,1,1.3,1.133,3.654,3.654,0,0,1,.026.474c0,7.473,0,13.437,0,20.911,0,.274,0,.55-.023.824-.028.418-.224.6-.659.639-.141.011-.284.01-.425.01H151.8c-.1,0-.193-.01-.3-.015-.032-.465-10.922.024-11.228.018-.948-.019-1.9-.006-2.845-.009a.709.709,0,0,1-.807-.719,2.178,2.178,0,0,1-.006-.222c0-7.1.1-14.809.1-21.912l17.415-1.158Z" transform="translate(0 -1.77)"/><path class="b" d="M164.221,542.408s3.509.026,4.975.022c1.068,0,2.134-.015,3.2-.022a2.3,2.3,0,0,1,.3.011c.446.056.635.25.715.749q.4,2.539.8,5.08c.014.092.034.184.047.277a.671.671,0,0,0,.453.606c.714.254,1.425.52,2.136.782.524.193.66.4.661,1.031q0,3.39,0,6.781c0,.028,0,.057,0,.084-.014.8-.149.952-.858.954-.975,0-12.507-.027-12.507-.027Z" transform="translate(-3.173 -2.712)"/><path class="c" d="M147.046,557.611a4.624,4.624,0,0,1,4.675,4.632,4.705,4.705,0,0,1-4.659,4.683,4.766,4.766,0,0,1-4.679-4.521A4.669,4.669,0,0,1,147.046,557.611Z" transform="translate(-0.944 -5.043)"/><path class="c" d="M147.046,557.611a4.624,4.624,0,0,1,4.675,4.632,4.705,4.705,0,0,1-4.659,4.683,4.766,4.766,0,0,1-4.679-4.521A4.669,4.669,0,0,1,147.046,557.611Z" transform="translate(21.041 -5.044)"/><g transform="translate(0.401 -1.33)"><path class="d" d="M145.174,539.44a8.278,8.278,0,1,1,8.469-8.281A8.477,8.477,0,0,1,145.174,539.44Z" transform="translate(0.106 4.405)"/><path class="c" d="M139.537,528.723a2.917,2.917,0,1,1,2.894-2.918A2.94,2.94,0,0,1,139.537,528.723Z" transform="translate(6.571 8.643)"/><path class="e" d="M11.394,20.117H8.722a.787.787,0,0,1-.786-.786V18.158a8.3,8.3,0,0,1-2.1-.873l-.83.83a.787.787,0,0,1-1.111,0L2,16.226a.787.787,0,0,1,0-1.111l.83-.83a8.3,8.3,0,0,1-.873-2.1H.786A.787.787,0,0,1,0,11.394V8.723a.787.787,0,0,1,.786-.786h1.17a8.3,8.3,0,0,1,.872-2.108L2,5A.787.787,0,0,1,2,3.891L3.891,2A.787.787,0,0,1,5,2l.824.824a8.3,8.3,0,0,1,2.111-.876V.786A.787.787,0,0,1,8.723,0h2.672a.787.787,0,0,1,.786.786v1.16a8.3,8.3,0,0,1,2.114.875l.82-.82a.787.787,0,0,1,1.111,0l1.889,1.889a.787.787,0,0,1,0,1.111l-.82.82a8.3,8.3,0,0,1,.875,2.114h1.16a.787.787,0,0,1,.786.786v2.672a.787.787,0,0,1-.786.786H18.168a8.306,8.306,0,0,1-.876,2.111l.824.824a.787.787,0,0,1,0,1.111l-1.889,1.889a.787.787,0,0,1-1.111,0l-.826-.827a8.3,8.3,0,0,1-2.108.872v1.17a.787.787,0,0,1-.786.786Zm-2.98-2.652a.393.393,0,0,1,.308.384v1.482h2.672v-1.48a.393.393,0,0,1,.308-.384,7.529,7.529,0,0,0,2.434-1.006.393.393,0,0,1,.489.054L15.67,17.56l1.889-1.889-1.043-1.043a.393.393,0,0,1-.053-.49A7.528,7.528,0,0,0,17.475,11.7a.393.393,0,0,1,.384-.308h1.472V8.723h-1.47a.393.393,0,0,1-.384-.308,7.524,7.524,0,0,0-1.01-2.439.393.393,0,0,1,.053-.489L17.56,4.446,15.671,2.557,14.631,3.6a.393.393,0,0,1-.489.053A7.527,7.527,0,0,0,11.7,2.64a.393.393,0,0,1-.308-.384V.786H8.723V2.258a.393.393,0,0,1-.308.384A7.527,7.527,0,0,0,5.979,3.653.393.393,0,0,1,5.489,3.6L4.446,2.557,2.557,4.446,3.6,5.492a.393.393,0,0,1,.054.489A7.529,7.529,0,0,0,2.65,8.414a.393.393,0,0,1-.384.308H.786v2.672H2.268a.393.393,0,0,1,.384.308,7.525,7.525,0,0,0,1.008,2.43.393.393,0,0,1-.053.489L2.557,15.671,4.446,17.56,5.5,16.511C5.571,16.435,7.55,17.274,8.414,17.465Z" transform="translate(133.711 527.169) rotate(-14)"/></g></g></g></svg>