<svg xmlns="http://www.w3.org/2000/svg" width="40" height="40" viewBox="0 0 40 40"><defs><style>.a,.c{fill:#fff;}.a{stroke:#707070;opacity:0;}.b,.d,.e,.g{fill:none;}.b,.c,.d{stroke:#323232;}.b,.c{stroke-miterlimit:10;}.d,.e{stroke-linecap:round;}.e{stroke:#000;}.f{stroke:none;}</style></defs><g transform="translate(178 -895.5)"><g class="a" transform="translate(-178 895.5)"><rect class="f" width="40" height="40"/><rect class="g" x="0.5" y="0.5" width="39" height="39"/></g><g transform="translate(-313.611 372.527)"><path class="b" d="M156.256,535.507q1.683.005,3.368.024a1.171,1.171,0,0,1,1.3,1.133,3.654,3.654,0,0,1,.026.474c0,7.473,0,13.437,0,20.911,0,.274,0,.55-.023.824-.028.418-.224.6-.659.639-.141.011-.284.01-.425.01H151.8c-.1,0-.193-.01-.3-.015-.032-.465-10.922.024-11.228.018-.948-.019-1.9-.006-2.845-.009a.709.709,0,0,1-.807-.719,2.178,2.178,0,0,1-.006-.222c0-7.1.1-14.809.1-21.912l17.415-1.158Z" transform="translate(0 -1.77)"/><path class="b" d="M164.221,542.408s3.509.026,4.975.022c1.068,0,2.134-.015,3.2-.022a2.3,2.3,0,0,1,.3.011c.446.056.635.25.715.749q.4,2.539.8,5.08c.014.092.034.184.047.277a.671.671,0,0,0,.453.606c.714.254,1.425.52,2.136.782.524.193.66.4.661,1.031q0,3.39,0,6.781c0,.028,0,.057,0,.084-.014.8-.149.952-.858.954-.975,0-12.507-.027-12.507-.027Z" transform="translate(-3.173 -2.712)"/><path class="c" d="M147.046,557.611a4.624,4.624,0,0,1,4.675,4.632,4.705,4.705,0,0,1-4.659,4.683,4.766,4.766,0,0,1-4.679-4.521A4.669,4.669,0,0,1,147.046,557.611Z" transform="translate(-0.944 -5.043)"/><path class="c" d="M147.046,557.611a4.624,4.624,0,0,1,4.675,4.632,4.705,4.705,0,0,1-4.659,4.683,4.766,4.766,0,0,1-4.679-4.521A4.669,4.669,0,0,1,147.046,557.611Z" transform="translate(21.041 -5.044)"/><g transform="translate(0.401 -1.33)"><path class="c" d="M144.927,539.471a8.29,8.29,0,1,1,8.225-8.3A8.356,8.356,0,0,1,144.927,539.471Z" transform="translate(1.211 3.269)"/><line class="d" y2="9" transform="translate(145.961 529.802)"/><line class="e" y2="9" transform="translate(150.461 534.302) rotate(90)"/></g></g></g></svg>