<svg xmlns="http://www.w3.org/2000/svg" width="40" height="40" viewBox="0 0 40 40"><defs><style>.a{fill:#1c1c1c;opacity:0;}.b,.c,.e{fill:none;}.b{stroke:#323232;}.d,.f{stroke:none;}.f{fill:#323232;}</style></defs><g transform="translate(-23 -299)"><rect class="a" width="40" height="40" transform="translate(23 299)"/><g transform="translate(23 299.889)"><g class="b" transform="translate(0 0)"><ellipse class="d" cx="19.556" cy="19.469" rx="19.556" ry="19.469"/><ellipse class="e" cx="19.556" cy="19.469" rx="19.056" ry="18.969"/></g><g class="c" transform="translate(12.548 7.257)"><path class="d" d="M7.59,0A7.59,7.59,0,1,1,0,7.59,7.59,7.59,0,0,1,7.59,0Z"/><path class="f" d="M 7.590179443359375 0.9999990463256836 C 3.956339836120605 0.9999990463256836 0.9999990463256836 3.956339836120605 0.9999990463256836 7.590179443359375 C 0.9999990463256836 11.22402000427246 3.956339836120605 14.18035984039307 7.590179443359375 14.18035984039307 C 11.22402000427246 14.18035984039307 14.18035984039307 11.22402000427246 14.18035984039307 7.590179443359375 C 14.18035984039307 3.956339836120605 11.22402000427246 0.9999990463256836 7.590179443359375 0.9999990463256836 M 7.590179443359375 -9.5367431640625e-07 C 11.78211975097656 -9.5367431640625e-07 15.18035984039307 3.398239135742188 15.18035984039307 7.590179443359375 C 15.18035984039307 11.78211975097656 11.78211975097656 15.18035984039307 7.590179443359375 15.18035984039307 C 3.398239135742188 15.18035984039307 -9.5367431640625e-07 11.78211975097656 -9.5367431640625e-07 7.590179443359375 C -9.5367431640625e-07 3.398239135742188 3.398239135742188 -9.5367431640625e-07 7.590179443359375 -9.5367431640625e-07 Z"/></g><g class="c" transform="translate(7.791 22.963)"><path class="d" d="M0,11.967a12.381,12.381,0,0,1,24.687-.883,18.771,18.771,0,0,1-12.851,5.064A18.76,18.76,0,0,1,0,11.967Z"/><path class="f" d="M 11.83593654632568 15.1480827331543 C 16.20121765136719 15.1480827331543 20.36925888061523 13.56974029541016 23.62959861755371 10.69312191009521 C 23.2446460723877 8.102312088012695 21.97317886352539 5.722379684448242 20.01524543762207 3.947062253952026 C 17.91931533813477 2.046622276306152 15.20564651489258 1.000002264976501 12.37413597106934 1.000002264976501 C 9.400436401367188 1.000002264976501 6.587245941162109 2.139612436294556 4.452785968780518 4.208902359008789 C 2.442735433578491 6.15758228302002 1.237378358840942 8.731232643127441 1.026543259620667 11.5019645690918 C 2.476867437362671 12.60861015319824 4.076508522033691 13.48073101043701 5.78847599029541 14.09746265411377 C 7.723636150360107 14.794602394104 9.758296012878418 15.1480827331543 11.83593654632568 15.1480827331543 M 11.83593654632568 16.1480827331543 C 7.351566314697266 16.1480827331543 3.235246181488037 14.58225250244141 -3.921813913621008e-06 11.96712207794189 C 0.2178860753774643 5.320072174072266 5.675345897674561 2.320251496712444e-06 12.37413597106934 2.320251496712444e-06 C 18.7725658416748 2.320251496712444e-06 24.03906631469727 4.855302333831787 24.68663597106934 11.08409214019775 C 21.32117652893066 14.22564220428467 16.80295562744141 16.1480827331543 11.83593654632568 16.1480827331543 Z"/></g></g></g></svg>