<svg xmlns="http://www.w3.org/2000/svg" width="24" height="24" viewBox="0 0 24 24"><defs><style>.a{fill:#ff6418;}</style></defs><g transform="translate(-128)"><g transform="translate(128)"><path class="a" d="M13,25A12,12,0,1,1,25,13,12.014,12.014,0,0,1,13,25ZM13,2.6A10.4,10.4,0,1,0,23.4,13,10.412,10.412,0,0,0,13,2.6Z" transform="translate(-1 -1)"/><g transform="translate(5.822 4.356)"><path class="a" d="M12.717,20.814H9.872a.864.864,0,0,1-.864-.864V17.1a.864.864,0,0,1,.253-.611L18.51,7.245a.864.864,0,0,1,1.222,0l2.846,2.846a.864.864,0,0,1,0,1.222l-9.249,9.249A.864.864,0,0,1,12.717,20.814Zm-1.982-1.728H12.36L20.745,10.7,19.121,9.078l-8.385,8.385Z" transform="translate(-9.008 -6.992)"/></g><g transform="translate(14.226 5.506)"><rect class="a" width="2.012" height="4.024" transform="translate(0 1.423) rotate(-45)"/></g></g></g></svg>