<svg xmlns="http://www.w3.org/2000/svg" viewBox="0 0 9.6 11.45"><defs><style>.cls-1{fill:#f26724;}</style></defs><g id="Layer_2" data-name="Layer 2"><g id="Layer_1-2" data-name="Layer 1"><g id="Layer_2-2" data-name="Layer 2"><g id="Layer_1-2-2" data-name="Layer 1-2"><g id="Shape-3"><path class="cls-1" d="M4.82,11.45a.6.6,0,0,1-.6-.6V.6a.6.6,0,0,1,1.2,0V10.85A.6.6,0,0,1,4.82,11.45Z"/></g><g id="Shape-4"><path class="cls-1" d="M9,5.05a.59.59,0,0,1-.41-.16L4.82,1.41,1,4.89A.59.59,0,1,1,.2,4L4.42.16a.6.6,0,0,1,.81,0L9.41,4a.6.6,0,0,1,0,.85A.59.59,0,0,1,9,5.05Z"/></g></g></g></g></g></svg>