<svg xmlns="http://www.w3.org/2000/svg" viewBox="0 0 9.6 11.45"><defs><style>.cls-1{fill:#999;}</style></defs><g id="Layer_2" data-name="Layer 2"><g id="Layer_1-2" data-name="Layer 1"><g id="Layer_2-2" data-name="Layer 2"><g id="Layer_1-2-2" data-name="Layer 1-2"><g id="Shape"><path class="cls-1" d="M4.82,11.45a.6.6,0,0,1-.6-.6V.6a.6.6,0,0,1,1.2,0V10.85A.6.6,0,0,1,4.82,11.45Z"/></g><g id="Shape-2"><path class="cls-1" d="M4.82,11.45a.57.57,0,0,1-.4-.16L.2,7.44a.58.58,0,0,1,0-.84.58.58,0,0,1,.84,0L4.82,10,8.59,6.56a.6.6,0,1,1,.82.88L5.23,11.29A.59.59,0,0,1,4.82,11.45Z"/></g></g></g></g></g></svg>