<svg xmlns="http://www.w3.org/2000/svg" width="36.693" height="35.956" viewBox="0 0 36.693 35.956"><defs><style>.a{fill:#3e3e3e;opacity:0;}.b{fill:none;}.b,.c{stroke:#ff6418;stroke-miterlimit:10;stroke-width:1.3px;}.c{fill:#fff;}.d{fill:#fd6517;stroke:#fff;}</style></defs><g transform="translate(0.5 0)"><rect class="a" width="35.956" height="35.956" transform="translate(0.237 0)"/><g transform="translate(0 3.568)"><path class="b" d="M153.913,535.507q1.483.006,2.966.026c.688.009,1.058.405,1.147,1.223a4.822,4.822,0,0,1,.023.512c0,8.063,0,14.5,0,22.561,0,.3,0,.593-.021.889-.025.451-.2.652-.58.689-.124.012-.25.011-.374.011h-7.088c-.085,0-.17-.011-.262-.017-.028-.5-9.62.027-9.889.02-.835-.021-1.671-.007-2.506-.01-.445,0-.669-.25-.711-.775-.007-.078,0-.159,0-.239,0-7.663.086-17.185.086-24.848l15.337-.042Z" transform="translate(-134.641 -535.507)"/><path class="b" d="M164.068,549.594q0-3.048,0-6.1c0-.124,0-.248,0-.373.016-.567.137-.7.64-.7q1.938,0,3.874,0c.94,0,1.88-.014,2.819-.019a2.006,2.006,0,0,1,.264.01c.393.049.56.22.63.66q.356,2.236.708,4.474c.013.081.03.162.041.244a.591.591,0,0,0,.4.533c.629.223,1.255.458,1.881.689.462.17.582.354.582.908q0,2.986,0,5.973c0,.025,0,.05,0,.074-.013.706-.131.839-.756.84-.859,0-10.177,0-10.508,0-.417,0-.575-.174-.577-.646,0-1.385,0-2.771,0-4.156Z" transform="translate(-140.71 -532.399)"/><path class="c" d="M146.49,557.611a4.073,4.073,0,0,1,4.117,4.079,4.144,4.144,0,0,1-4.1,4.124,4.2,4.2,0,0,1-4.121-3.982A4.112,4.112,0,0,1,146.49,557.611Z" transform="translate(-136.161 -536.266)"/><path class="c" d="M146.49,557.611a4.073,4.073,0,0,1,4.117,4.079,4.144,4.144,0,0,1-4.1,4.124,4.2,4.2,0,0,1-4.121-3.982A4.112,4.112,0,0,1,146.49,557.611Z" transform="translate(-116.798 -536.266)"/><rect class="d" width="17.249" height="2.305" transform="translate(0 6.014)"/><rect class="d" width="10.01" height="2.305" transform="translate(0 13.171)"/></g></g></svg>