<svg xmlns="http://www.w3.org/2000/svg" width="24" height="24" viewBox="0 0 24 24"><defs><style>.a{fill:rgba(0,0,0,0.4);fill-rule:evenodd;}</style></defs><path class="a" d="M17.1,29.1a12,12,0,1,1,12-12,12,12,0,0,1-12,12Zm0-.962a11.4,11.4,0,0,0,6.254-1.924c-1.71,0-4.811-1.31-4.811-2.886V22.2c0-2,2.886-4.57,2.886-6.922a1.828,1.828,0,0,0-.481-.829V12.289A2.874,2.874,0,0,0,18.062,9.4H16.138a2.874,2.874,0,0,0-2.886,2.886v2.085a1.871,1.871,0,0,0-.481.8c0,2.352,2.886,5.345,2.886,6.708v1.443c0,1.577-3.047,2.886-4.811,2.886A11.62,11.62,0,0,0,17.1,28.138Zm0-22.076a11.033,11.033,0,0,0-7,19.563c2.459-.695,4.624-1.523,4.624-2.512v-1.47A13.681,13.681,0,0,1,13.332,19c-.561-.053-1.523-2.592-1.523-3.394a1.569,1.569,0,0,1,.481-1.149c-.241-3.982.935-5.987,4.2-5.987h1.39c3.073,0,4.437,2.031,4.062,5.987a1.591,1.591,0,0,1,.508,1.149c0,.8-1.069,3.394-1.523,3.394a.2.2,0,0,1-.107-.027,19.55,19.55,0,0,1-1.283,2.619v1.443c0,.962,2.058,1.978,4.65,2.539A11.027,11.027,0,0,0,17.1,6.062Zm1.443,9.114h.107a.593.593,0,0,0-.107.134v-.134Z" transform="translate(-5.1 -5.1)"/></svg>