<svg xmlns="http://www.w3.org/2000/svg" width="26.263" height="17.325" viewBox="0 0 26.263 17.325"><defs><style>.a{stroke:#fff;stroke-width:0.65px;}.b,.d{fill:none;}.b{stroke:#000;}.c{stroke:none;}</style></defs><g transform="translate(0.505 -81)"><path class="a" d="M21.372,137.705A2.248,2.248,0,0,0,19.189,136H15.058v7.5c-1.781-.628-14.788-.648-15.058,0v6H3.181a2.251,2.251,0,0,0,4.244,0H18.238a2.251,2.251,0,0,0,4.244,0h3.131V142H22.447Zm-4.814-.2h2.63a.749.749,0,0,1,.728.568L20.9,142H16.558ZM5.3,149.507a.75.75,0,1,1,.75-.75A.751.751,0,0,1,5.3,149.507Zm2.122-1.5a2.251,2.251,0,0,0-4.244,0H1.5v-4.621H15.058v4.621Zm12.936,1.5a.75.75,0,1,1,.75-.75A.751.751,0,0,1,20.36,149.507Zm3.752-1.5h-1.63a2.251,2.251,0,0,0-4.244,0h-1.68v-4.5h7.554Z" transform="translate(-0.18 -53.008)"/><g class="b" transform="translate(0.234 81)"><path class="c" d="M1,0H14.785a1,1,0,0,1,1,1v9.524a0,0,0,0,1,0,0H0a0,0,0,0,1,0,0V1A1,1,0,0,1,1,0Z"/><rect class="d" x="0.5" y="0.5" width="14.785" height="9.524" rx="0.5"/></g></g></svg>