<svg xmlns="http://www.w3.org/2000/svg" width="18" height="21.096" viewBox="0 0 18 21.096"><defs><style>.a{fill:#ff6418;}</style></defs><path class="a" d="M9.937,17.64H2.47a.579.579,0,0,1-.579-.579V.731A.579.579,0,0,1,2.47.152h13.65A.579.579,0,0,1,16.7.731V10.9a.579.579,0,1,1-1.157,0V1.308H3.048V16.482H9.937a.579.579,0,0,1,0,1.157Z" transform="translate(-1.891 -0.152)"/><g transform="translate(3.199 3.404)"><path class="a" d="M13.316,5.133H6.063a.579.579,0,1,1,0-1.157h7.253a.579.579,0,1,1,0,1.157Z" transform="translate(-5.484 -3.976)"/><path class="a" d="M13.316,8.521H6.063a.579.579,0,1,1,0-1.157h7.253a.579.579,0,1,1,0,1.157Z" transform="translate(-5.484 -4.348)"/><path class="a" d="M13.316,11.909H6.063a.579.579,0,1,1,0-1.157h7.253a.579.579,0,1,1,0,1.157Z" transform="translate(-5.484 -4.72)"/></g><g transform="translate(8.595 11.209)"><path class="a" d="M14.62,18.893A3.075,3.075,0,1,1,17.7,15.818,3.079,3.079,0,0,1,14.62,18.893Zm0-4.993a1.918,1.918,0,1,0,1.918,1.918A1.92,1.92,0,0,0,14.62,13.9Z" transform="translate(-11.545 -12.743)"/><path class="a" d="M21.026,23.344a.573.573,0,0,1-.409-.169l-2.932-2.932a.579.579,0,0,1,.818-.818l2.932,2.932a.578.578,0,0,1-.41.987Z" transform="translate(-12.2 -13.458)"/></g></svg>