<svg xmlns="http://www.w3.org/2000/svg" width="15.358" height="18" viewBox="0 0 15.358 18"><defs><style>.a{fill:#242424;}</style></defs><g transform="translate(-2.891 -0.152)"><g transform="translate(2.891 0.152)"><path class="a" d="M8.756,15.073H2.385a.494.494,0,0,1-.494-.494V.646A.494.494,0,0,1,2.385.152H14.031a.494.494,0,0,1,.494.494V9.321a.494.494,0,0,1-.988,0V1.139H2.879V14.086H8.756a.494.494,0,0,1,0,.988Z" transform="translate(-1.891 -0.152)"/><g transform="translate(2.729 2.905)"><path class="a" d="M12.166,4.964H5.978a.494.494,0,1,1,0-.988h6.189a.494.494,0,0,1,0,.988Z" transform="translate(-5.484 -3.976)"/><path class="a" d="M12.166,8.352H5.978a.494.494,0,1,1,0-.988h6.189a.494.494,0,1,1,0,.988Z" transform="translate(-5.484 -4.79)"/><path class="a" d="M12.166,11.74H5.978a.494.494,0,1,1,0-.988h6.189a.494.494,0,1,1,0,.988Z" transform="translate(-5.484 -5.605)"/></g><g transform="translate(7.333 9.564)"><path class="a" d="M14.169,17.99a2.624,2.624,0,1,1,2.624-2.624A2.627,2.627,0,0,1,14.169,17.99Zm0-4.26A1.636,1.636,0,1,0,15.8,15.367,1.638,1.638,0,0,0,14.169,13.731Z" transform="translate(-11.545 -12.743)"/><path class="a" d="M20.511,22.744a.489.489,0,0,1-.349-.144l-2.5-2.5a.494.494,0,1,1,.7-.7l2.5,2.5a.493.493,0,0,1-.349.842Z" transform="translate(-12.98 -14.308)"/></g></g></g></svg>