<svg xmlns="http://www.w3.org/2000/svg" viewBox="0 0 15.36 18"><defs><style>.cls-1{}</style></defs><title>view</title><g id="Layer_2" data-name="Layer 2"><g id="Layer_1-2" data-name="Layer 1"><path id="Path_1560" data-name="Path 1560" class="cls-1" d="M6.87,14.92H.49a.49.49,0,0,1-.49-.5H0V.49A.49.49,0,0,1,.49,0H12.14a.49.49,0,0,1,.49.49h0V9.17a.49.49,0,0,1-.49.49h0a.49.49,0,0,1-.49-.49V1H1V13.93H6.87a.5.5,0,0,1,0,1Z"/><path id="Path_1561" data-name="Path 1561" class="cls-1" d="M9.41,3.89H3.23a.5.5,0,1,1,0-1H9.42a.5.5,0,0,1,0,1Z"/><path id="Path_1562" data-name="Path 1562" class="cls-1" d="M9.41,6.46H3.23a.49.49,0,1,1,0-1H9.42a.49.49,0,0,1,0,1h0Z"/><path id="Path_1563" data-name="Path 1563" class="cls-1" d="M9.41,9H3.23a.5.5,0,0,1-.5-.5.49.49,0,0,1,.5-.49H9.42a.49.49,0,0,1,.49.49.51.51,0,0,1-.49.5h0Z"/><path id="Path_1564" data-name="Path 1564" class="cls-1" d="M10,14.81a2.63,2.63,0,1,1,2.62-2.63h0A2.63,2.63,0,0,1,10,14.81Zm0-4.26a1.63,1.63,0,0,0-1.64,1.63h0A1.64,1.64,0,0,0,10,13.82h0a1.64,1.64,0,0,0,1.64-1.63h0A1.65,1.65,0,0,0,10,10.55Z"/><path id="Path_1565" data-name="Path 1565" class="cls-1" d="M14.87,18a.5.5,0,0,1-.35-.14L12,15.36a.5.5,0,0,1,0-.7.49.49,0,0,1,.7,0h0l2.5,2.5a.49.49,0,0,1,0,.69h0a.52.52,0,0,1-.35.14Z"/></g></g></svg>