<svg xmlns="http://www.w3.org/2000/svg" width="23.847" height="27.891" viewBox="0 0 23.847 27.891"><g transform="translate(0 0)"><path d="M33.94,27.838a24.242,24.242,0,0,1-.355-4.372c.241-2.02,1.259-4.427,4.749-4.427,3.529,0,4.556,2.407,4.8,4.427a24.24,24.24,0,0,1-.355,4.372h.662a23.876,23.876,0,0,0,.341-4.448c-.223-1.868-1.225-5-5.444-5-4.177,0-5.174,3.134-5.4,5a23.819,23.819,0,0,0,.341,4.448Z" transform="translate(-26.381 -14.721)"/><path d="M35.1,59.663a.326.326,0,0,0,.106-.634c-.032-.011-3.151-1.1-3.988-2.487-.268-.755-.8-2.79-.21-3.6.006-.008.007-.017.011-.025a5.656,5.656,0,0,0,.735-1.079,7.257,7.257,0,0,0,.486-1.552h5.473a.326.326,0,0,0,0-.652H17.02a.326.326,0,0,0,0,.652H22.6a7.282,7.282,0,0,0,.486,1.552A5.766,5.766,0,0,0,23.89,53c.511.851,0,2.789-.256,3.523C22.8,57.909,19.678,59,19.646,59.008a.326.326,0,1,0,.212.616c.139-.048,3.419-1.191,4.355-2.8l.025-.053a8.738,8.738,0,0,0,.52-2.912c.084.072.169.144.256.213a4.31,4.31,0,0,0,2.41,1.116,4.31,4.31,0,0,0,2.41-1.116c.091-.073.18-.148.268-.224a8.686,8.686,0,0,0,.518,2.943l.025.053c.936,1.609,4.215,2.752,4.354,2.8A.32.32,0,0,0,35.1,59.663Zm-5.678-6.1a3.839,3.839,0,0,1-2,.974,3.838,3.838,0,0,1-2-.974,8,8,0,0,1-1.006-.955c-.015-.023-.026-.048-.042-.07a.323.323,0,0,0-.078-.071,4.929,4.929,0,0,1-.623-.919,6.152,6.152,0,0,1-.4-1.26h8.3a6.152,6.152,0,0,1-.4,1.26A6.63,6.63,0,0,1,29.427,53.563Z" transform="translate(-15.446 -35.784)"/><path d="M13.19,13.631a.326.326,0,0,0,.326-.326V7.791H19.03a.326.326,0,0,0,0-.652H13.19a.326.326,0,0,0-.326.326V13.3A.326.326,0,0,0,13.19,13.631Z" transform="translate(-12.864 -7.139)"/><path d="M72.276,7.139h-5.84a.326.326,0,1,0,0,.652H71.95V13.3a.326.326,0,1,0,.652,0V7.465A.326.326,0,0,0,72.276,7.139Z" transform="translate(-48.755 -7.139)"/><path d="M72.276,72.793a.326.326,0,0,0-.326.326v5.514H66.436a.326.326,0,1,0,0,.652h5.84a.326.326,0,0,0,.326-.326v-5.84A.326.326,0,0,0,72.276,72.793Z" transform="translate(-48.755 -51.393)"/><path d="M19.03,78.633H13.516V73.119a.326.326,0,0,0-.652,0v5.84a.326.326,0,0,0,.326.326h5.84a.326.326,0,1,0,0-.652Z" transform="translate(-12.864 -51.393)"/></g></svg>